<svg width="24" height="24" viewBox="0 0 24 24" fill="none" xmlns="http://www.w3.org/2000/svg">
<path d="M3 20.1675L3 5.43246C3 5.1742 3.16526 4.94491 3.41026 4.86325L9 3L15 5L20.2103 3.26325C20.5988 3.13374 21 3.42292 21 3.83246L21 18.5675C21 18.8258 20.8347 19.0551 20.5897 19.1368L15 21L9 19L3.78974 20.7368C3.40122 20.8663 3 20.5771 3 20.1675Z" fill="#E2D9E9"/>
<path d="M9 19L3.78974 20.7368C3.40122 20.8663 3 20.5771 3 20.1675L3 5.43246C3 5.1742 3.16526 4.94491 3.41026 4.86325L9 3M9 19L15 21M9 19L9 3M15 21L20.5897 19.1368C20.8347 19.0551 21 18.8258 21 18.5675L21 3.83246C21 3.42292 20.5988 3.13374 20.2103 3.26325L15 5M15 21L15 5M15 5L9 3" stroke="#5E409D" stroke-width="1.5" stroke-linecap="round" stroke-linejoin="round"/>
</svg>
